<?xml version="1.0" encoding="UTF-8"?>
<svg id="Layer_2" xmlns="http://www.w3.org/2000/svg" viewBox="0 0 75.46 77.85">
  <defs>
    <style>
      .cls-1 {
        fill: #ff7f19;
      }

      .cls-2 {
        fill: #e5fc2f;
      }
    </style>
  </defs>
  <g id="Layer_1-2" data-name="Layer_1">
    <g>
      <path class="cls-1" d="M15.57,0h44.33c8.6,0,15.57,6.9,15.57,15.42v47.01c0,8.51-6.97,15.42-15.57,15.42H15.57c-8.6,0-15.57-6.9-15.57-15.42V15.42C0,6.9,6.97,0,15.57,0"/>
      <path class="cls-2" d="M19.85,8.95c3.65-.67,6.25.61,8.87,2.21,1.62.99,3.07,2.22,4.38,3.58l31.78,33.1s.02.02.19.22c6.02,7.01,2.84,14.52-1.61,18.84-5.15,5.01-10.01,4.22-13.6,3.38-2.65-.62-4.44-1.86-7.06-3.89l-27.48-25.81c-2.22-2.09-4.16-4.48-5.61-7.14-2.12-3.88-3.85-9.26-1.55-14.53,2.95-6.76,7.12-9.11,11.69-9.96"/>
      <path class="cls-2" d="M41.04,15.26l16.96,16.59c.63.61,1.45,1,2.34,1.06,1.59.11,3.65-.73,5.05-3.53,0,0,5.2-9.23.68-16.19-4.52-6.96-12.59-8.17-18.31-6.1-4.61,1.67-5.7,3.15-6.9,4.61-.87,1.06-.81,2.59.18,3.55"/>
      <path class="cls-2" d="M12.82,47.8c4.01,3.19,11.81,9.7,18.1,16.75,1.48,1.66,1.02,4.24-.94,5.29-.06.03-.12.07-.18.09-12.59,5.93-20-5.12-20.78-6.47-.45-.78-.78-1.67-1.09-2.58-1.01-3-.95-6.23-.06-9.27.55-1.88.48-1.74.94-2.74.69-1.5,2.65-2.16,4.01-1.08"/>
    </g>
  </g>
</svg>