<svg preserveAspectRatio="none" width="100%" height="100%" overflow="visible" style="display: block;" viewBox="0 0 200 268" fill="none" xmlns="http://www.w3.org/2000/svg">
<g id="Heart Hands" clip-path="url(#clip0_2076_150)">
<path id="Vector" d="M59.9235 213.954C58.752 193.205 51.3941 178.895 44.9036 166.268C39.5286 155.814 34.8873 146.784 33.9601 134.561C32.3751 113.665 42.5637 90.5475 64.2448 65.8498L38.7929 43.7189C10.9308 75.4574 -2.03367 106.873 0.258298 137.093C1.6981 156.074 8.66715 169.629 14.8152 181.589C20.4996 192.646 25.4082 202.194 26.1787 215.841C27.1247 232.595 21.4907 250.109 9.42927 268H48.3478C57.0501 250.025 60.9383 231.936 59.9229 213.954H59.9235Z" fill="var(--fill-0, #69E5FF)"/>
<path id="Vector_2" d="M75.183 32.8862C79.0185 29.502 84.827 28.8874 88.5238 30.8903C92.0004 32.7739 92.8607 36.5664 96.2407 36.6396C96.561 36.6464 98.2506 36.6492 99.3144 35.5332C101.642 33.0917 99.4337 26.9108 96.4588 23.4272C92.1073 18.3316 85.3398 18.1009 83.6847 18.09C85.0127 16.7836 86.8105 14.8023 88.5241 12.1023C90.7672 8.56777 92.5126 5.81717 91.4738 3.34753C90.8494 1.86308 89.3031 0.68005 87.652 0.343591C85.9334 -0.00682219 84.5335 0.64842 84.1437 0.837581C82.7596 1.50895 82.3533 2.41351 80.3898 4.88501C79.2201 6.35706 78.2162 7.50505 77.5728 8.222C78.7238 5.46955 78.1103 2.55368 76.2449 1.0714C74.7985 -0.0778353 72.6988 -0.286533 71.0833 0.37088C68.8465 1.28103 68.4841 3.49731 65.9217 7.99842C64.5077 10.4823 63.1898 12.4015 62.3242 13.6022C62.8589 11.6722 62.3591 9.76258 61.0729 8.77677C59.382 7.48086 57.0872 8.36062 56.885 8.44186C54.8523 9.25681 54.2889 11.149 51.9889 15.5305C50.9881 17.4369 49.7963 19.2399 48.798 21.1473C43.4928 31.2848 34.7032 45.6797 30.5393 52.4991C29.6273 53.9925 28.1772 56.3552 26.3538 59.268C26.8549 61.3785 27.8248 64.1719 29.8416 66.9048C36.3293 75.6961 48.6506 76.9831 55.8253 75.93C59.7462 75.3544 63.4113 73.9338 63.4113 73.9338C67.4359 72.374 68.5548 71.0682 72.1744 69.5081C75.708 67.9849 78.4701 67.1337 81.8529 67.0347C90.2166 66.7901 94.4908 72.3954 98.1145 70.0287C100.108 68.7266 100.288 66.0669 100.294 65.95C100.466 62.7039 97.1988 60.1775 95.5857 58.9641C87.4772 52.865 80.3471 56.2299 74.3673 50.0285C72.5066 48.0991 71.866 46.3929 71.6946 45.9036C70.2654 41.8242 71.3095 36.3038 75.1824 32.8865L75.183 32.8862Z" fill="var(--fill-0, #69E5FF)"/>
<path id="Vector_3" d="M49.147 32.7026C49.0513 32.7026 48.9557 32.6706 48.8762 32.6052C48.6971 32.456 48.6734 32.1912 48.8226 32.0126C52.354 27.7959 55.6589 23.3316 58.6457 18.7437C59.7811 17.0003 60.8959 15.199 61.9594 13.3898C62.0774 13.1883 62.3348 13.1222 62.5376 13.2391C62.7389 13.3566 62.8065 13.614 62.6888 13.8144C61.6185 15.6346 60.4971 17.4472 59.3552 19.2011C56.35 23.817 53.0239 28.3085 49.471 32.5512C49.3875 32.6511 49.2673 32.7023 49.1467 32.7023L49.147 32.7026Z" fill="var(--fill-0, #F6FFFC)"/>
<path id="Vector_4" d="M57.5698 30.3564C57.4592 30.3564 57.3486 30.3136 57.2661 30.2283C57.1034 30.0611 57.1084 29.7951 57.276 29.6338C60.3613 26.6646 63.4066 23.5748 66.3286 20.4505C70.0887 16.4307 73.7613 12.2273 77.245 7.95687C77.3918 7.77577 77.6576 7.7491 77.8392 7.89516C78.0199 8.04122 78.048 8.30604 77.9003 8.48652C74.405 12.7718 70.72 16.9898 66.9474 21.0236C64.0148 24.1584 60.9586 27.2588 57.8637 30.2379C57.782 30.3167 57.6755 30.3564 57.5698 30.3564Z" fill="var(--fill-0, #F6FFFC)"/>
<path id="Vector_5" d="M65.2178 28.266C65.1262 28.266 65.0337 28.2362 64.9561 28.176C64.7729 28.0325 64.7417 27.7679 64.886 27.5856C66.848 25.1048 70.2841 21.7306 75.507 19.7472C78.1798 18.7332 81.0039 18.2001 83.9028 18.1629C84.1396 18.1629 84.3278 18.3477 84.3309 18.5781C84.3343 18.8101 84.1471 19.0011 83.9143 19.0039C81.1148 19.0392 78.3876 19.5537 75.8083 20.533C70.7652 22.4482 67.4465 25.708 65.5497 28.1053C65.4662 28.2108 65.3425 28.266 65.2178 28.266Z" fill="var(--fill-0, #F6FFFC)"/>
<path id="Vector_6" d="M53.9805 76.3024C53.4754 76.3024 52.9728 76.259 52.4762 76.1728C51.916 76.0754 51.3607 75.9219 50.8267 75.7166C50.6089 75.6332 50.5008 75.3898 50.5843 75.173C50.6684 74.9562 50.9142 74.8474 51.1305 74.9324C51.614 75.1181 52.1148 75.2564 52.6214 75.3442C53.519 75.5002 54.4391 75.4998 55.3542 75.3442C55.587 75.3067 55.8032 75.458 55.8428 75.6875C55.8814 75.9163 55.7272 76.1337 55.4979 76.1728C54.9919 76.259 54.4855 76.3024 53.9805 76.3024Z" fill="var(--fill-0, #F6FFFC)"/>
<path id="Vector_7" d="M173.821 215.841C174.591 202.194 179.5 192.646 185.184 181.589C191.333 169.629 198.302 156.074 199.741 137.093C202.034 106.873 189.069 75.4574 161.207 43.7186L135.755 65.8495C157.436 90.5472 167.625 113.665 166.04 134.56C165.112 146.784 160.471 155.813 155.096 166.268C148.606 178.894 141.248 193.205 140.076 213.954C139.061 231.936 142.949 250.025 151.651 268H190.57C178.508 250.109 172.874 232.595 173.82 215.841L173.821 215.841Z" fill="var(--fill-0, #69E5FF)"/>
<path id="Vector_8" d="M124.817 32.8862C120.981 29.502 115.173 28.8874 111.476 30.8903C108 32.7739 107.139 36.5664 103.76 36.6396C103.439 36.6464 101.75 36.6492 100.686 35.5332C98.3588 33.0917 100.567 26.9108 103.542 23.4272C107.893 18.3316 114.66 18.1009 116.316 18.09C114.988 16.7836 113.19 14.8023 111.476 12.1023C109.233 8.56777 107.488 5.81717 108.526 3.34753C109.151 1.86308 110.697 0.68005 112.348 0.343591C114.067 -0.00682219 115.467 0.64842 115.857 0.837581C117.241 1.50895 117.647 2.41351 119.611 4.88501C120.78 6.35706 121.784 7.50505 122.427 8.222C121.277 5.46955 121.89 2.55368 123.755 1.0714C125.202 -0.0778353 127.302 -0.286533 128.917 0.37088C131.154 1.28103 131.516 3.49731 134.078 7.99842C135.492 10.4823 136.81 12.4015 137.676 13.6022C137.141 11.6722 137.641 9.76258 138.927 8.77677C140.618 7.48086 142.913 8.36062 143.115 8.44186C145.148 9.25681 145.711 11.149 148.011 15.5305C149.012 17.4369 150.204 19.2399 151.202 21.1473C156.508 31.2848 165.297 45.6797 169.461 52.4991C170.373 53.9925 171.823 56.3552 173.646 59.268C173.145 61.3785 172.176 64.1719 170.159 66.9048C163.671 75.6961 151.35 76.9831 144.175 75.93C140.254 75.3544 136.589 73.9338 136.589 73.9338C132.564 72.374 131.445 71.0682 127.826 69.5081C124.292 67.9849 121.53 67.1337 118.147 67.0347C109.784 66.7901 105.509 72.3954 101.886 70.0287C99.8917 68.7266 99.7119 66.0669 99.7057 65.95C99.534 62.7039 102.801 60.1775 104.414 58.9641C112.522 52.865 119.653 56.2299 125.632 50.0285C127.493 48.0991 128.134 46.3929 128.305 45.9036C129.734 41.8242 128.691 36.3038 124.817 32.8865L124.817 32.8862Z" fill="var(--fill-0, #69E5FF)"/>
<path id="Vector_9" d="M150.853 32.7026C150.732 32.7026 150.612 32.6511 150.529 32.5516C146.976 28.3088 143.65 23.8173 140.644 19.2014C139.503 17.4472 138.381 15.635 137.311 13.8147C137.193 13.6143 137.26 13.357 137.462 13.2394C137.665 13.1231 137.922 13.1892 138.04 13.3901C139.104 15.1993 140.219 17.0006 141.354 18.744C144.341 23.3317 147.646 27.7959 151.177 32.0129C151.326 32.1915 151.302 32.4564 151.123 32.6055C151.044 32.6709 150.949 32.7026 150.853 32.7026Z" fill="var(--fill-0, #F6FFFC)"/>
<path id="Vector_10" d="M142.43 30.3564C142.325 30.3564 142.218 30.317 142.136 30.2379C139.033 27.2504 135.977 24.15 133.053 21.0236C129.28 16.9898 125.595 12.7715 122.1 8.48652C121.952 8.30604 121.98 8.04153 122.161 7.89516C122.341 7.74848 122.608 7.77577 122.755 7.95687C126.239 12.2273 129.911 16.4307 133.671 20.4505C136.586 23.5667 139.631 26.6565 142.724 29.6338C142.891 29.7951 142.897 30.0611 142.734 30.2283C142.651 30.3136 142.541 30.3564 142.43 30.3564Z" fill="var(--fill-0, #F6FFFC)"/>
<path id="Vector_11" d="M134.782 28.266C134.657 28.266 134.534 28.2111 134.45 28.1053C132.553 25.7076 129.234 22.4476 124.191 20.533C121.612 19.5537 118.885 19.0392 116.085 19.0039C115.853 19.0011 115.665 18.8101 115.669 18.5781C115.672 18.3477 115.86 18.1629 116.091 18.1629C118.996 18.1998 121.82 18.7329 124.492 19.7472C129.716 21.7306 133.152 25.1045 135.114 27.5856C135.258 27.7679 135.227 28.0322 135.044 28.176C134.966 28.2365 134.873 28.266 134.782 28.266Z" fill="var(--fill-0, #F6FFFC)"/>
<path id="Vector_12" d="M146.02 76.3024C145.514 76.3024 145.009 76.259 144.503 76.1728C144.273 76.1334 144.119 75.9163 144.158 75.6875C144.197 75.458 144.412 75.3063 144.646 75.3442C145.559 75.4999 146.48 75.5002 147.379 75.3442C147.884 75.2567 148.386 75.1178 148.87 74.9324C149.086 74.8496 149.332 74.9569 149.416 75.173C149.499 75.3898 149.391 75.6332 149.173 75.7166C148.638 75.9222 148.084 76.0754 147.524 76.1728C147.027 76.259 146.525 76.3024 146.02 76.3024Z" fill="var(--fill-0, #F6FFFC)"/>
</g>
<defs>
<clipPath id="clip0_2076_150">
<rect width="200" height="268" fill="white"/>
</clipPath>
</defs>
</svg>
