<svg preserveAspectRatio="none" width="100%" height="100%" overflow="visible" style="display: block;" viewBox="0 0 196 179" fill="none" xmlns="http://www.w3.org/2000/svg">
<g id="Holding Hands" clip-path="url(#clip0_2065_1156)">
<path id="Vector" d="M83.6091 26.1179C85.5751 24.0977 90.3227 19.7727 97.836 17.8862C107.307 15.508 115.01 18.5515 117.437 19.6275C123.054 25.6432 125.873 32.0839 123.849 35.7411C123.346 36.6492 122.52 37.4315 122.18 37.7533C118.842 40.9128 114.61 41.2748 112.814 41.3153C103.079 36.2495 93.3441 31.1836 83.6091 26.1179Z" fill="var(--fill-0, #E5FC2F)"/>
<path id="Vector_2" d="M110.359 30.8442C108.545 30.8442 106.584 30.6284 104.534 30.078C101.976 29.3918 99.5609 28.257 97.3561 26.706C97.2302 26.6177 97.1997 26.444 97.2883 26.3181C97.3773 26.1923 97.5505 26.1623 97.6754 26.2504C99.8268 27.7638 102.182 28.8706 104.678 29.5402C110.087 30.992 114.858 30.0581 117.907 29.0195C118.052 28.9683 118.21 29.0472 118.26 29.1932C118.309 29.3388 118.231 29.4969 118.086 29.5464C116.119 30.2169 113.451 30.8442 110.359 30.8442Z" fill="var(--fill-0, #F6FFFC)"/>
<path id="Vector_3" d="M192.586 66.704C183.673 89.0341 162.137 101.563 139.333 114.833C118.814 126.772 97.5955 139.123 86.3242 158.953C82.9101 164.967 80.4523 171.666 78.9676 179H56.3695C58.1489 167.646 61.702 157.249 66.9956 147.939C81.2307 122.88 106.164 108.374 128.156 95.5717C147.551 84.2897 165.868 73.6316 171.934 58.4348C173.491 54.5369 174.042 50.9228 173.625 47.3923C172.468 37.6083 163.855 27.9857 153.134 24.5111C142.33 21.0029 130.114 24.0488 121.244 32.4574L105.953 16.2807C120.733 2.26989 141.435 -2.69725 159.991 3.31675C178.863 9.44226 193.554 26.4875 195.712 44.7747C196.568 51.9917 195.517 59.37 192.587 66.7038L192.586 66.704Z" fill="var(--fill-0, #E5FC2F)"/>
<path id="Vector_4" d="M139.755 179H117.196C115.728 171.349 113.215 164.377 109.673 158.146C98.4073 138.316 77.1882 125.97 56.6644 114.031C33.8661 100.761 12.33 88.232 3.41641 65.9019C0.486016 58.5684 -0.565077 51.19 0.285681 43.9731C2.44323 25.6859 17.1341 8.63488 36.0124 2.51492C54.5624 -3.50463 75.2699 1.46251 90.0443 15.4785L74.7528 31.6496C65.8892 23.2466 53.6671 20.2007 42.863 23.7033C32.1478 27.1837 23.5289 36.8061 22.3724 46.5845C21.9553 50.1206 22.5114 53.7345 24.0684 57.6271C30.135 72.8293 48.4514 83.4875 67.8411 94.7695C89.8386 107.572 114.772 122.078 129.007 147.131C134.423 156.664 138.015 167.328 139.756 179L139.755 179Z" fill="var(--fill-0, #FF7F19)"/>
<path id="Vector_5" d="M79.7363 17.8071C83.2133 15.2249 87.3995 14.9926 89.458 14.8784C92.3478 14.7183 94.7383 15.1674 96.3342 15.5908C97.5987 17.8334 98.8635 20.076 100.128 22.3186C106.094 27.3184 110.85 30.8041 114.296 33.1823C116.313 34.5747 119.782 36.8989 119.453 39.356C119.322 40.3319 118.592 41.3282 117.674 41.9087C116.033 42.9467 114.254 42.3617 114.006 42.2755C113.986 42.5412 113.824 44.2686 112.339 45.3518C111.063 46.2832 109.307 46.3736 107.834 45.5892C107.897 46.0676 107.93 46.9508 107.419 47.7262C106.57 49.0176 104.535 49.5224 102.499 48.7353C102.228 49.2201 101.719 49.9583 100.839 50.3976C99.4557 51.0886 97.9457 50.6452 97.0806 50.3561C88.4214 47.4632 79.8253 40.5191 79.8253 40.5191C77.1094 38.325 75.7409 37.21 75.2307 36.3282C72.0965 30.9105 74.1476 21.957 79.7359 17.8067L79.7363 17.8071Z" fill="var(--fill-0, #FF7F19)"/>
<path id="Vector_6" d="M113.726 42.4116C113.683 42.4116 113.639 42.4018 113.598 42.3808C112.678 41.9083 111.766 41.3894 110.888 40.8389C108.591 39.3985 106.44 37.6878 104.496 35.7545C104.388 35.646 104.387 35.4698 104.495 35.3604C104.603 35.2522 104.779 35.2505 104.889 35.3592C106.803 37.2636 108.92 38.9482 111.183 40.3668C112.048 40.9089 112.946 41.4198 113.853 41.8853C113.989 41.9555 114.043 42.1233 113.973 42.2601C113.924 42.3564 113.827 42.4116 113.726 42.4116Z" fill="var(--fill-0, #F6FFFC)"/>
<path id="Vector_7" d="M107.834 45.868C107.792 45.868 107.748 45.8582 107.707 45.837C106.99 45.4672 106.279 45.0639 105.593 44.639C103.986 43.6423 102.456 42.4866 101.048 41.2048C100.934 41.1011 100.926 40.9253 101.029 40.8113C101.133 40.6982 101.308 40.6898 101.421 40.7927C102.805 42.0518 104.307 43.1866 105.886 44.1653C106.559 44.583 107.258 44.9789 107.962 45.3421C108.098 45.4126 108.152 45.5803 108.082 45.7171C108.032 45.813 107.935 45.868 107.834 45.868Z" fill="var(--fill-0, #F6FFFC)"/>
<path id="Vector_8" d="M102.314 48.9193C102.271 48.9193 102.227 48.9092 102.186 48.8881C101.391 48.4753 100.618 48.0012 99.8873 47.4783C99.1879 46.9769 98.5167 46.4231 97.8938 45.8323C97.7824 45.7265 97.7775 45.5503 97.8829 45.4384C97.9887 45.3267 98.1647 45.3218 98.276 45.4275C98.8809 46.0013 99.5315 46.5389 100.211 47.0254C100.92 47.533 101.67 47.9934 102.442 48.3938C102.579 48.4644 102.632 48.6326 102.561 48.769C102.512 48.8646 102.415 48.9193 102.314 48.9193Z" fill="var(--fill-0, #F6FFFC)"/>
<path id="Vector_9" d="M117.437 19.6275C115.823 18.4772 113.616 17.1584 110.82 16.1356C110.773 16.1183 110.726 16.1013 110.679 16.0844C104.814 13.9747 98.3527 14.4474 92.7306 17.1391C91.3684 17.7913 90.2007 18.4242 89.224 18.9913C86.9676 20.3015 85.5454 21.3436 85.483 22.7847C85.4324 23.9554 86.3385 24.8419 86.488 24.9883C86.7115 25.207 87.7304 26.1419 90.3391 26.0401C94.8816 25.8627 100.099 22.7028 101.635 21.7335C106.685 24.5129 112.032 24.8287 115.308 22.2486C115.984 21.7165 116.777 20.8992 117.437 19.6275Z" fill="var(--fill-0, #E5FC2F)"/>
<path id="Vector_10" d="M100.376 22.6371C100.259 22.6371 100.151 22.5634 100.112 22.4467C100.063 22.3009 100.142 22.1432 100.288 22.0945C100.519 22.0167 100.758 21.9309 101.005 21.8356C101.224 21.751 101.434 21.6646 101.636 21.5771C101.776 21.5169 101.94 21.581 102.002 21.722C102.062 21.8633 101.998 22.027 101.857 22.0882C101.648 22.1785 101.431 22.2677 101.205 22.3551C100.95 22.4533 100.703 22.5424 100.463 22.6225C100.434 22.6324 100.405 22.6369 100.375 22.6369L100.376 22.6371Z" fill="var(--fill-0, #F6FFFC)"/>
<path id="Vector_11" d="M97.5073 45.7185C97.2241 44.7848 96.2253 44.1402 95.3265 44.0063C94.6792 43.91 94.0643 44.0782 93.463 44.4027C93.859 43.7913 94.0868 43.1525 93.9599 42.4445C93.7526 41.2869 92.7267 40.6345 92.5938 40.5526C91.4757 39.8643 90.2595 40.1544 89.873 40.2466C88.7948 40.5037 88.216 41.0767 87.1401 42.1034C87.3025 41.8619 87.5157 41.4629 87.5315 40.959C87.5756 39.5398 86.0125 38.6113 85.8464 38.5156C84.2993 37.6254 81.845 38.2802 79.749 40.1516C78.9794 39.7285 78.01 39.0934 77.0358 38.1574C75.7441 36.9167 74.9541 35.6368 74.4864 34.7212C74.2087 34.9115 73.7164 35.305 73.3598 35.9734C73.2271 36.222 72.725 37.1985 73.0293 38.3794C73.3278 39.538 74.334 40.4813 75.4165 40.7212C76.5711 40.9769 77.7873 40.5518 78.5673 39.6255C78.3052 39.962 77.7032 40.8348 77.6913 42.057C77.6788 43.3383 78.3179 44.7105 79.4783 45.3807C80.1197 45.7512 80.7421 45.8042 81.0404 45.8265C82.1169 45.9068 82.9453 45.5339 83.3146 45.3382C83.4756 45.7855 84.1402 47.4689 85.8716 48.2307C86.1325 48.3455 86.6892 48.5595 87.4128 48.587C88.1471 48.6147 88.817 48.439 89.417 48.1615C89.395 48.4835 89.4043 49.041 89.6948 49.6259C90.3545 50.9532 91.8679 51.2077 92.0068 51.2286C93.8723 51.5114 95.337 49.8495 96.0576 49.0322C96.8271 48.1591 97.8839 46.9601 97.5073 45.7185Z" fill="var(--fill-0, #E5FC2F)"/>
<path id="Vector_12" d="M89.5806 48.2895C89.4932 48.2895 89.4073 48.2482 89.353 48.171C89.2644 48.0453 89.295 47.8716 89.4209 47.7833C89.8336 47.4929 90.2409 47.1833 90.6319 46.8631C91.5729 46.0918 92.4532 45.2275 93.2494 44.2951C93.3492 44.1782 93.5252 44.1651 93.6414 44.2641C93.7581 44.3641 93.7718 44.5398 93.6718 44.6567C92.8547 45.6144 91.9504 46.5017 90.9838 47.2939C90.5831 47.6229 90.1644 47.9408 89.7401 48.2392C89.6919 48.2735 89.636 48.2897 89.5804 48.2897L89.5806 48.2895Z" fill="var(--fill-0, #F6FFFC)"/>
<path id="Vector_13" d="M83.483 45.4846C83.3928 45.4846 83.3048 45.4409 83.2511 45.3598C83.1664 45.2316 83.2017 45.0589 83.3292 44.9739C83.6919 44.7335 84.0487 44.4799 84.3903 44.2199C85.294 43.5322 86.147 42.7584 86.9262 41.9194C87.031 41.8073 87.2069 41.8013 87.3193 41.9052C87.4317 42.0102 87.4376 42.1861 87.3334 42.2989C86.5325 43.1607 85.6555 43.9564 84.727 44.663C84.3758 44.9304 84.0085 45.191 83.6366 45.4382C83.5894 45.4694 83.5361 45.4844 83.483 45.4844V45.4846Z" fill="var(--fill-0, #F6FFFC)"/>
<path id="Vector_14" d="M79.0194 40.8684C78.9308 40.8684 78.8435 40.8259 78.7898 40.7469C78.7034 40.62 78.736 40.4466 78.8626 40.36L79.505 39.9216C79.6309 39.8359 79.8042 39.8672 79.8911 39.9947C79.9774 40.122 79.9448 40.2951 79.8179 40.3815L79.1767 40.82C79.1283 40.8526 79.074 40.8682 79.0198 40.8682L79.0194 40.8684Z" fill="var(--fill-0, #F6FFFC)"/>
</g>
<defs>
<clipPath id="clip0_2065_1156">
<rect width="196" height="179" fill="white"/>
</clipPath>
</defs>
</svg>
