<svg preserveAspectRatio="none" width="100%" height="100%" overflow="visible" style="display: block;" viewBox="0 0 113 410.031" fill="none" xmlns="http://www.w3.org/2000/svg">
<g id="left side" clip-path="url(#clip0_2076_164)">
<path id="Vector" d="M103.08 397.592C102.468 388.907 100.737 379.547 98.2039 371.235C90.4187 345.687 75.8473 329.802 64.1399 317.04C53.7627 305.729 45.5662 296.794 42.5568 283.248C41.9254 280.4 41.0601 276.5 41.38 271.215C42.2262 257.227 50.7849 248.014 65.8377 232.934C78.9722 219.777 93.8581 204.865 102.921 182.067C112.075 159.039 113.053 132.981 105.828 104.617L66.0803 117.128C70.6763 135.173 70.3678 150.344 65.1343 163.507C59.6418 177.325 49.2181 187.767 38.1825 198.822C21.3032 215.729 2.17384 234.893 0.161852 268.133C-0.589549 280.552 1.46167 289.799 2.44919 294.249C8.27036 320.454 22.5851 336.059 35.2153 349.826C45.5388 361.08 54.4543 370.798 59.0766 385.966C60.5207 390.706 61.5486 396.252 61.8963 401.183C62.1073 404.171 62.0765 407.121 61.8484 410.03H103.23C103.412 405.881 103.372 401.732 103.08 397.592L103.08 397.592Z" fill="var(--fill-0, #FF7F19)"/>
<path id="Vector_2" d="M59.7667 115.668C56.5653 113.02 54.5796 109.274 53.8313 107.708C51.6311 103.102 51.8372 99.7292 50.4856 92.6518C49.3735 86.8288 48.1346 82.1369 47.2377 79.0131C44.7885 75.3656 43.4971 72.0178 42.7937 69.7695C41.8515 66.7587 38.7907 56.6214 43.1643 50.5837C44.2116 49.138 45.5891 48.3705 45.5891 48.3705C48.2428 46.8918 50.9906 47.7469 51.9118 48.0835C51.8699 47.6326 51.4571 42.3519 54.9959 39.2094C55.4913 38.7696 57.6854 36.8214 60.7268 37.3162C64.2412 37.8886 65.9302 41.2419 66.1206 41.6347C64.1974 34.5086 62.6359 28.2153 61.4001 22.9913C58.813 12.0585 58.1439 7.85179 60.3082 4.8774C61.6454 3.03969 64.0154 1.78491 66.145 2.17607C69.832 2.85299 71.772 8.27471 73.672 13.9839C76.045 21.1129 79.0091 30.6516 82.0623 42.3375C82.4957 34.3181 83.2246 23.1305 84.4414 11.095C84.7884 7.66256 85.381 2.41738 88.6117 0.633C90.3376 -0.320361 92.6444 -0.190819 94.2801 0.969978C97.1033 2.97322 97.3478 7.63927 97.4491 10.145C98.0779 25.7163 98.0028 51.3106 97.999 52.3952C99.3133 52.5611 101.201 52.9857 103.145 54.1982C109.589 58.2165 110.962 67.3357 111.831 73.1126C113.042 81.1556 114.822 92.9833 108.258 102.995C103.5 110.253 96.9986 112.525 88.0111 115.667C80.4525 118.309 68.1593 122.605 59.7674 115.667L59.7667 115.668Z" fill="var(--fill-0, #FF7F19)"/>
<path id="Vector_3" d="M69.5379 52.3485C69.3273 52.3485 69.1285 52.2033 69.0527 51.9696L65.7809 41.9157C65.6831 41.6173 65.8224 41.2883 66.0906 41.1808C66.3549 41.0716 66.6542 41.2274 66.7509 41.5258L70.0228 51.5793C70.1206 51.8773 69.9812 52.2067 69.7131 52.3146C69.6556 52.3383 69.5962 52.3489 69.5376 52.3489L69.5379 52.3485Z" fill="var(--fill-0, #F6FFFC)"/>
<path id="Vector_4" d="M68.7957 80.6373C62.8142 80.5908 58.7495 70.5081 55.7823 63.1466C53.9154 58.5166 52.4743 53.6482 51.4978 48.6765C51.4361 48.367 51.6136 48.0609 51.892 47.9936C52.1735 47.928 52.4458 48.1223 52.5063 48.4318C53.4676 53.326 54.8866 58.1186 56.7241 62.6763C59.5774 69.7545 63.4845 79.4482 68.7633 79.4888C70.5826 79.4973 72.4476 78.4127 73.5753 76.7113C75.1889 74.2745 75.1226 70.5267 73.4077 67.1633C73.2664 66.8877 73.3544 66.5372 73.6012 66.3805C73.8472 66.2247 74.164 66.32 74.3049 66.5969C76.2213 70.3536 76.2606 74.5904 74.4059 77.3912C73.0977 79.3661 70.8991 80.6361 68.7953 80.6361L68.7957 80.6373Z" fill="var(--fill-0, #F6FFFC)"/>
<path id="Vector_5" d="M57.3738 88.5911C53.0783 88.5911 48.5208 83.6867 45.8842 76.1334C45.7803 75.8379 45.9124 75.5056 46.1786 75.3909C46.4448 75.2783 46.7434 75.4222 46.8462 75.719C49.428 83.1113 53.8335 87.8168 57.8286 87.421C58.2109 87.3829 60.1906 87.1047 61.5269 85.361C63.4605 82.84 63.2525 78.4466 61.0116 74.4282C60.8616 74.1586 60.9362 73.8047 61.1781 73.6379C61.4192 73.4723 61.7391 73.5532 61.8891 73.8229C64.368 78.2679 64.5386 83.2041 62.3138 86.1056C60.7557 88.1372 58.5567 88.5013 57.9204 88.5648C57.7391 88.5826 57.5563 88.5915 57.3738 88.5915V88.5911Z" fill="var(--fill-0, #F6FFFC)"/>
<path id="Vector_6" d="M83.6851 51.1767C83.4471 51.1767 83.2334 50.9934 83.1808 50.725L81.6247 42.7768C81.5642 42.4669 81.7405 42.1613 82.0189 42.0935C82.3003 42.0283 82.5726 42.2231 82.6332 42.5325L84.1893 50.4807C84.2499 50.7906 84.0735 51.0963 83.7951 51.164C83.7578 51.1729 83.7216 51.1767 83.6851 51.1767Z" fill="var(--fill-0, #F6FFFC)"/>
<path id="Vector_7" d="M79.4832 98.3816C79.1767 98.3681 78.9558 98.101 78.9668 97.7843C79.1241 93.5699 79.5164 89.3294 80.1326 85.1798C80.9423 79.725 82.1568 74.3012 83.7441 69.0459C81.8018 68.8367 79.8511 68.5082 77.937 68.0675C71.572 66.6019 66.0746 65.3366 64.2915 60.745C64.1574 60.3987 63.0267 57.2948 64.3631 54.6049C66.1713 50.9608 71.3938 50.7699 75.2072 50.6302C82.4245 50.366 89.9755 50.75 97.6567 51.7719C97.94 51.8096 98.1418 52.0953 98.1076 52.4103C98.0744 52.7257 97.817 52.9518 97.5336 52.912C89.9039 51.8964 82.4043 51.5162 75.2414 51.7766C70.7886 51.9396 66.6759 52.3214 65.2668 55.1595C64.1506 57.4095 65.1952 60.1744 65.2398 60.2908C66.8111 64.3328 72.0637 65.5427 78.1473 66.9427C80.2369 67.4241 82.37 67.7691 84.4879 67.9681C84.6463 67.9824 84.7907 68.0777 84.8771 68.2263C84.964 68.3745 84.9841 68.5586 84.9327 68.7263C83.2604 74.1361 81.9888 79.7348 81.1517 85.366C80.5428 89.4699 80.1554 93.6631 80.0001 97.8304C79.9879 98.1395 79.759 98.3808 79.4836 98.3808L79.4832 98.3816Z" fill="var(--fill-0, #F6FFFC)"/>
<path id="Vector_8" d="M88.2982 69.3287C87.6074 69.2859 86.9417 69.2474 86.2729 69.2097C85.5539 69.1695 84.8387 69.1318 84.1269 69.0967C83.8424 69.0827 83.6215 68.8143 83.6348 68.4976C83.647 68.1823 83.8386 67.9118 84.1733 67.9499C84.8874 67.985 85.6045 68.0227 86.3255 68.0629C86.9961 68.1006 87.6637 68.1404 88.3275 68.1818C88.612 68.1992 88.8299 68.4706 88.8139 68.7872C88.7986 69.0929 88.5705 69.3287 88.2982 69.3287Z" fill="var(--fill-0, #F6FFFC)"/>
<path id="Vector_9" d="M69.5258 119.773C69.0489 119.773 68.5729 119.753 68.0976 119.712C67.8131 119.688 67.6002 119.413 67.6216 119.096C67.6436 118.78 67.9148 118.553 68.1761 118.568C69.3468 118.668 70.527 118.637 71.6859 118.478C72.8456 118.319 73.9934 118.031 75.099 117.621C75.3702 117.522 75.6619 117.683 75.7525 117.984C75.8424 118.285 75.6962 118.61 75.4258 118.71C74.2558 119.144 73.0406 119.449 71.8131 119.618C71.0556 119.721 70.2913 119.773 69.5258 119.773Z" fill="var(--fill-0, #F6FFFC)"/>
</g>
<defs>
<clipPath id="clip0_2076_164">
<rect width="113" height="410.031" fill="white"/>
</clipPath>
</defs>
</svg>
