<svg preserveAspectRatio="none" width="100%" height="100%" overflow="visible" style="display: block;" viewBox="0 0 84.6437 85.7631" fill="none" xmlns="http://www.w3.org/2000/svg">
<path id="Vector" d="M17.6399 0.252064C22.6728 -0.676851 26.2642 1.10136 29.8849 3.30282C32.1226 4.66476 34.1271 6.36754 35.9347 8.25051L79.8046 53.9322C79.8409 53.9685 79.834 53.9615 80.0672 54.2325C88.3716 63.9086 83.991 74.2678 77.8504 80.2435C70.7487 87.1538 64.0396 86.0671 59.0779 84.9063C55.4168 84.0486 52.9555 82.3374 49.3292 79.5395L11.4015 43.9167C8.32984 41.0321 5.66601 37.7355 3.65174 34.0562C0.716922 28.6992 -1.66753 21.2791 1.50755 13.9958C5.57382 4.66755 11.3359 1.41565 17.6399 0.252064Z" fill="var(--fill-0, #FF7F19)"/>
</svg>
