<svg preserveAspectRatio="none" width="100%" height="100%" overflow="visible" style="display: block;" viewBox="0 0 47 49" fill="none" xmlns="http://www.w3.org/2000/svg">
<g id="Menu" filter="url(#filter0_d_2065_1196)">
<path id="Vector" d="M9.28302 0H35.717C40.844 0 45 4.07836 45 9.10934V36.8907C45 41.9216 40.844 46 35.717 46H9.28302C4.15603 46 0 41.9216 0 36.8907V9.10934C0 4.07836 4.15603 0 9.28302 0Z" fill="var(--fill-0, #FF7F19)"/>
<path id="Vector_2" d="M11.0128 33.5676H33.6427C33.841 33.5676 34.0309 33.6463 34.171 33.7864H34.172C34.312 33.9264 34.3907 34.1165 34.3908 34.3147C34.3908 34.5128 34.3119 34.7029 34.172 34.843L34.171 34.844C34.031 34.9839 33.8409 35.0628 33.6427 35.0628H11.0128C10.7459 35.0626 10.499 34.9201 10.3654 34.6887C10.2319 34.4575 10.2319 34.1719 10.3654 33.9407C10.499 33.7095 10.746 33.5677 11.0128 33.5676ZM11.0128 22.2522H33.6427C33.8409 22.2522 34.031 22.331 34.171 22.471L34.172 22.4719C34.3119 22.612 34.3908 22.8021 34.3908 23.0003C34.3907 23.1984 34.312 23.3885 34.172 23.5286H34.171C34.031 23.6687 33.841 23.7473 33.6427 23.7473H11.0128C10.7459 23.7472 10.499 23.6047 10.3654 23.3733C10.2488 23.171 10.2339 22.9276 10.3214 22.7151L10.3654 22.6262C10.499 22.3949 10.7459 22.2523 11.0128 22.2522ZM11.0128 10.9378H33.6427C33.8765 10.9378 34.095 11.0464 34.2355 11.2288L34.2902 11.3118C34.4236 11.543 34.4237 11.8276 34.2902 12.0588C34.1565 12.2902 33.9098 12.4329 33.6427 12.4329H11.0128C10.7459 12.4328 10.499 12.2902 10.3654 12.0588C10.232 11.8277 10.2322 11.5429 10.3654 11.3118C10.499 11.0804 10.7459 10.9379 11.0128 10.9378Z" fill="var(--fill-0, #E5FC2F)" stroke="var(--stroke-0, #E5FC2F)" stroke-width="1.33333"/>
</g>
<defs>
<filter id="filter0_d_2065_1196" x="0" y="0" width="47" height="49" filterUnits="userSpaceOnUse" color-interpolation-filters="sRGB">
<feFlood flood-opacity="0" result="BackgroundImageFix"/>
<feColorMatrix in="SourceAlpha" type="matrix" values="0 0 0 0 0 0 0 0 0 0 0 0 0 0 0 0 0 0 127 0" result="hardAlpha"/>
<feOffset dx="2" dy="3"/>
<feComposite in2="hardAlpha" operator="out"/>
<feColorMatrix type="matrix" values="0 0 0 0 0.964706 0 0 0 0 1 0 0 0 0 0.988235 0 0 0 1 0"/>
<feBlend mode="normal" in2="BackgroundImageFix" result="effect1_dropShadow_2065_1196"/>
<feBlend mode="normal" in="SourceGraphic" in2="effect1_dropShadow_2065_1196" result="shape"/>
</filter>
</defs>
</svg>
