<svg preserveAspectRatio="none" width="100%" height="100%" overflow="visible" style="display: block;" viewBox="0 0 27.8485 33.6517" fill="none" xmlns="http://www.w3.org/2000/svg">
<path id="Vector" d="M3.33241 8.06122C2.30051 8.06122 1.48831 7.73405 0.892985 7.07829C0.297659 6.42394 0 5.40687 0 4.03132C0 2.65578 0.293413 1.64013 0.881652 0.98436C1.46847 0.328594 2.28633 0 3.33241 0H24.5161C25.5636 0 26.38 0.328594 26.9683 0.98436C27.5551 1.64013 27.8485 2.65578 27.8485 4.03132C27.8485 5.40687 27.5508 6.42394 26.9569 7.07829C26.3616 7.73405 25.548 8.06122 24.5161 8.06122H18.9711V29.1368C18.9711 30.5777 18.5572 31.6887 17.7336 32.4739C16.9073 33.2591 15.6301 33.6517 13.8994 33.6517C12.1872 33.6517 10.9214 33.2591 10.1049 32.4739C9.28709 31.6887 8.87886 30.5777 8.87886 29.1368V8.06122H3.33241Z" fill="var(--fill-0, #69E5FF)"/>
</svg>
