<svg preserveAspectRatio="none" width="100%" height="100%" overflow="visible" style="display: block;" viewBox="0 0 30.2766 33.4569" fill="none" xmlns="http://www.w3.org/2000/svg">
<path id="Vector" d="M12.5203 25.8807C13.6641 25.8807 14.689 25.6944 15.6032 25.3231C16.5146 24.9504 17.2914 24.3842 17.9349 23.6232C18.5784 22.8636 19.0731 21.8921 19.4232 20.71C19.7719 19.5293 19.9462 18.1367 19.9462 16.5335C19.9462 14.9162 19.7917 13.5406 19.4813 12.4069C19.1723 11.2732 18.7088 10.35 18.0908 9.63876C17.4714 8.92752 16.6975 8.40547 15.7691 8.07261C14.8406 7.74117 13.7577 7.57473 12.5203 7.57473H10.0922V25.8807H12.5203ZM0 4.51639C0 3.09106 0.389794 1.98294 1.16655 1.1892C1.94331 0.396873 3.03048 0 4.42808 0H12.9256C15.7336 0 18.217 0.376958 20.3743 1.12803C22.5331 1.88195 24.346 2.95308 25.8131 4.34569C27.2815 5.73688 28.3914 7.42111 29.1455 9.39552C29.8981 11.3699 30.2766 13.5705 30.2766 15.9987C30.2766 18.7043 29.8754 21.131 29.0746 23.2847C28.2723 25.4369 27.0987 27.2648 25.5508 28.7712C24.0044 30.2762 22.1078 31.4327 19.8626 32.2421C17.6174 33.0529 15.0433 33.4569 12.1404 33.4569H4.42808C3.03048 33.4569 1.94331 33.06 1.16655 32.2662C0.389794 31.4739 0 30.3644 0 28.9405V4.51639Z" fill="var(--fill-0, #69E5FF)"/>
</svg>
