<svg preserveAspectRatio="none" width="100%" height="100%" overflow="visible" style="display: block;" viewBox="0 0 52.3754 60.5865" fill="none" xmlns="http://www.w3.org/2000/svg">
<path id="Vector" d="M22.1376 38.9235C24.3573 38.9235 26.261 38.6006 27.8513 37.959C29.4403 37.3161 30.6706 36.2919 31.5409 34.8836C32.4098 33.4768 32.8464 31.6403 32.8464 29.3757C32.8464 27.1723 32.3971 25.4454 31.497 24.1894C30.5969 22.9362 29.3496 22.0016 27.762 21.3885C26.1717 20.7782 24.3276 20.471 22.2283 20.471C21.8683 20.471 21.5522 20.5165 21.2829 20.609C21.0136 20.7014 20.7726 20.8693 20.5614 21.1139C20.3516 21.3586 20.2028 21.8024 20.1121 22.4454C20.0228 23.0884 19.9462 23.976 19.8881 25.1069C19.8272 26.2406 19.7974 27.6929 19.7974 29.4682C19.7974 31.6702 19.8272 33.4156 19.8881 34.7001C19.9462 35.9846 20.0667 36.9348 20.2468 37.5451C20.4268 38.1582 20.6521 38.5408 20.9229 38.693C21.1922 38.8467 21.5962 38.9235 22.1376 38.9235ZM19.5281 60.5865C15.8668 60.5865 12.9427 60.4172 10.7527 60.0815C8.56277 59.7458 6.86892 59.1953 5.66835 58.43C4.46777 57.6647 3.53934 56.6107 2.87881 55.2636C1.85825 53.3674 1.12403 50.2749 0.6747 45.9904C0.223953 41.7087 0 36.3843 0 30.0187C0 26.04 0.103474 22.4312 0.314673 19.1865C0.523037 15.9432 0.854704 13.1594 1.30545 10.8322C1.75336 8.50788 2.27924 6.73404 2.87881 5.50928C3.53934 4.10102 4.45361 3.01566 5.62442 2.25037C6.79381 1.48507 8.48764 0.917499 10.7088 0.550498C12.9271 0.184919 15.8668 0 19.5281 0C29.9662 0 38.0668 2.51069 43.8259 7.52779C49.585 12.5463 52.4341 19.9817 52.3745 29.8352C52.3745 36.629 51.0691 42.3189 48.461 46.9079C45.85 51.4997 42.1009 54.9264 37.2107 57.1896C32.322 59.4542 26.4268 60.5865 19.5281 60.5865Z" fill="var(--fill-0, #FF7F19)"/>
</svg>
