<svg preserveAspectRatio="none" width="100%" height="100%" overflow="visible" style="display: block;" viewBox="0 0 42.2072 60.2181" fill="none" xmlns="http://www.w3.org/2000/svg">
<path id="Vector" d="M22.0483 60.2181C17.7294 60.2181 14.2779 60.0175 11.6996 59.6206C9.11841 59.2238 7.13966 58.6107 5.76048 57.7842C4.37989 56.9592 3.32958 55.8724 2.60952 54.5267C2.07089 53.3034 1.58896 51.5295 1.17081 49.2023C0.749833 46.878 0.45075 44.0928 0.269318 40.8495C0.0907198 37.6062 0 33.9334 0 29.8324C0 25.7939 0.104901 22.1837 0.3161 19.0016C0.524464 15.8195 0.840545 13.111 1.25869 10.8763C1.67967 8.64302 2.16018 6.91612 2.70023 5.68994C3.42029 4.2831 4.46921 3.16645 5.85121 2.33998C7.22897 1.51352 9.19496 0.9175 11.7435 0.549076C14.2935 0.182075 17.6387 0 21.779 0C26.818 0 30.8365 0.227595 33.8372 0.687057C36.8365 1.14652 38.9811 2.0498 40.271 3.39547C41.5623 4.74114 42.2072 6.63873 42.2072 9.08683C42.2072 11.5975 41.5453 13.5378 40.227 14.9162C38.9074 16.2917 36.7472 16.9816 33.7465 16.9816C32.3064 16.9816 30.9726 16.9674 29.7436 16.9347C28.5133 16.9048 27.3269 16.8593 26.1887 16.7967C25.0476 16.737 23.8783 16.7042 22.6777 16.7042C21.8371 16.7042 21.222 16.8593 20.8336 17.1651C20.4424 17.4724 20.2482 18.0826 20.2482 19.0016C20.2482 19.4297 20.2326 19.8735 20.2028 20.3316C20.1731 20.791 20.1589 21.2363 20.1589 21.663C20.1589 22.2761 20.3375 22.7185 20.6975 22.9945C21.059 23.269 21.6585 23.407 22.4991 23.407C23.8783 23.407 25.093 23.3928 26.1433 23.3601C27.1922 23.3302 28.2581 23.3003 29.3382 23.269C30.4169 23.2391 31.5565 23.2235 32.7571 23.2235C35.5764 23.2235 37.5566 23.7441 38.6962 24.784C39.8372 25.8252 40.4071 27.417 40.4071 29.5578C40.4071 31.6987 39.8514 33.2918 38.7416 34.3317C37.6317 35.3715 35.8457 35.8907 33.3879 35.8907C31.7677 35.8907 30.0129 35.8609 28.1221 35.7983C26.234 35.7399 24.2369 35.7086 22.1391 35.7086C20.818 35.7086 20.1589 36.2577 20.1589 37.3602V40.2065C20.1589 40.6347 20.1731 41.0017 20.2028 41.3076C20.2326 41.6148 20.2482 41.7983 20.2482 41.858C20.2482 42.4711 20.4282 42.9292 20.7882 43.2364C21.1497 43.5423 21.6288 43.6945 22.2284 43.6945H35.9974C37.7975 43.6945 39.266 44.245 40.4071 45.346C41.5453 46.4484 42.1165 48.1625 42.1165 50.4868C42.1165 51.9563 41.8755 53.2877 41.3964 54.4798C40.9159 55.6746 39.9719 56.7003 38.5615 57.5566C37.1526 58.4129 35.1115 59.0701 32.4424 59.5296C29.772 59.9876 26.3078 60.2181 22.0483 60.2181Z" fill="var(--fill-0, #FF7F19)"/>
</svg>
