<svg preserveAspectRatio="none" width="100%" height="100%" overflow="visible" style="display: block;" viewBox="0 0 1900.22 90" fill="none" xmlns="http://www.w3.org/2000/svg">
<g id="wavy seperator" filter="url(#filter0_d_2076_95)">
<path id="Polygon 3" d="M78.5244 1.96384C94.4189 1.96384 105.227 18.1587 99.3958 33.2367C84.1155 72.7458 29.3836 73.765 12.1079 35.4212C5.14806 19.9738 16.2702 1.96384 33.0489 1.96384L78.5244 1.96384Z" fill="var(--fill-0, #69E5FF)"/>
<path id="Polygon 2" d="M152.469 1.96384C168.363 1.96384 179.171 18.1587 173.34 33.2367C158.06 72.7458 103.328 73.765 86.0521 35.4212C79.0923 19.9738 90.2145 1.96384 106.993 1.96384L152.469 1.96384Z" fill="var(--fill-0, #69E5FF)"/>
<path id="Polygon 5" d="M226.413 1.96384C242.307 1.96384 253.116 18.1587 247.284 33.2367C232.004 72.7458 177.272 73.765 159.996 35.4212C153.037 19.9738 164.159 1.96384 180.937 1.96384L226.413 1.96384Z" fill="var(--fill-0, #69E5FF)"/>
<path id="Polygon 4" d="M300.357 1.96384C316.252 1.96384 327.06 18.1587 321.228 33.2367C305.948 72.7458 251.216 73.765 233.941 35.4212C226.981 19.9738 238.103 1.96384 254.882 1.96384L300.357 1.96384Z" fill="var(--fill-0, #69E5FF)"/>
<path id="Polygon 8" d="M374.301 1.96384C390.196 1.96384 401.004 18.1587 395.173 33.2367C379.892 72.7458 325.161 73.765 307.885 35.4212C300.925 19.9738 312.047 1.96384 328.826 1.96384L374.301 1.96384Z" fill="var(--fill-0, #69E5FF)"/>
<path id="Polygon 6" d="M448.246 1.96384C464.14 1.96384 474.948 18.1587 469.117 33.2367C453.837 72.7458 399.105 73.765 381.829 35.4212C374.869 19.9738 385.991 1.96384 402.77 1.96384L448.246 1.96384Z" fill="var(--fill-0, #69E5FF)"/>
<path id="Polygon 9" d="M522.19 1.96384C538.084 1.96384 548.893 18.1587 543.061 33.2367C527.781 72.7458 473.049 73.765 455.773 35.4212C448.814 19.9738 459.936 1.96384 476.714 1.96384L522.19 1.96384Z" fill="var(--fill-0, #69E5FF)"/>
<path id="Polygon 7" d="M596.134 1.96384C612.029 1.96384 622.837 18.1587 617.005 33.2367C601.725 72.7458 546.993 73.765 529.718 35.4212C522.758 19.9738 533.88 1.96384 550.659 1.96384L596.134 1.96384Z" fill="var(--fill-0, #69E5FF)"/>
<path id="Polygon 12" d="M670.078 1.96384C685.973 1.96384 696.781 18.1587 690.95 33.2367C675.669 72.7458 620.938 73.765 603.662 35.4212C596.702 19.9738 607.824 1.96384 624.603 1.96384L670.078 1.96384Z" fill="var(--fill-0, #69E5FF)"/>
<path id="Polygon 10" d="M744.023 1.96384C759.917 1.96384 770.725 18.1587 764.894 33.2367C749.614 72.7458 694.882 73.765 677.606 35.4212C670.646 19.9738 681.768 1.96384 698.547 1.96384L744.023 1.96384Z" fill="var(--fill-0, #69E5FF)"/>
<path id="Polygon 13" d="M817.967 1.96384C833.861 1.96384 844.67 18.1587 838.838 33.2367C823.558 72.7458 768.826 73.765 751.55 35.4212C744.59 19.9738 755.713 1.96384 772.491 1.96384L817.967 1.96384Z" fill="var(--fill-0, #69E5FF)"/>
<path id="Polygon 11" d="M891.911 1.96384C907.805 1.96384 918.614 18.1587 912.782 33.2367C897.502 72.7458 842.77 73.765 825.494 35.4212C818.535 19.9738 829.657 1.96384 846.436 1.96384L891.911 1.96384Z" fill="var(--fill-0, #69E5FF)"/>
<path id="Polygon 16" d="M965.855 1.96384C981.75 1.96384 992.558 18.1587 986.727 33.2367C971.446 72.7458 916.714 73.765 899.439 35.4212C892.479 19.9738 903.601 1.96384 920.38 1.96384L965.855 1.96384Z" fill="var(--fill-0, #69E5FF)"/>
<path id="Polygon 14" d="M1039.8 1.96384C1055.69 1.96384 1066.5 18.1587 1060.67 33.2367C1045.39 72.7458 990.659 73.765 973.383 35.4212C966.423 19.9738 977.545 1.96384 994.324 1.96384L1039.8 1.96384Z" fill="var(--fill-0, #69E5FF)"/>
<path id="Polygon 17" d="M1113.74 1.96384C1129.64 1.96384 1140.45 18.1587 1134.61 33.2367C1119.33 72.7458 1064.6 73.765 1047.33 35.4212C1040.37 19.9738 1051.49 1.96384 1068.27 1.96384L1113.74 1.96384Z" fill="var(--fill-0, #69E5FF)"/>
<path id="Polygon 15" d="M1187.69 1.96384C1203.58 1.96384 1214.39 18.1587 1208.56 33.2367C1193.28 72.7458 1138.55 73.765 1121.27 35.4212C1114.31 19.9738 1125.43 1.96384 1142.21 1.96384L1187.69 1.96384Z" fill="var(--fill-0, #69E5FF)"/>
<path id="Polygon 20" d="M1261.63 1.96384C1277.53 1.96384 1288.33 18.1587 1282.5 33.2367C1267.22 72.7458 1212.49 73.765 1195.22 35.4212C1188.26 19.9738 1199.38 1.96384 1216.16 1.96384L1261.63 1.96384Z" fill="var(--fill-0, #69E5FF)"/>
<path id="Polygon 18" d="M1335.58 1.96384C1351.47 1.96384 1362.28 18.1587 1356.45 33.2367C1341.17 72.7458 1286.44 73.765 1269.16 35.4212C1262.2 19.9738 1273.32 1.96384 1290.1 1.96384L1335.58 1.96384Z" fill="var(--fill-0, #69E5FF)"/>
<path id="Polygon 21" d="M1409.52 1.96384C1425.42 1.96384 1436.22 18.1587 1430.39 33.2367C1415.11 72.7458 1360.38 73.765 1343.1 35.4212C1336.14 19.9738 1347.27 1.96384 1364.05 1.96384L1409.52 1.96384Z" fill="var(--fill-0, #69E5FF)"/>
<path id="Polygon 19" d="M1483.46 1.96384C1499.36 1.96384 1510.17 18.1587 1504.34 33.2367C1489.06 72.7458 1434.32 73.765 1417.05 35.4212C1410.09 19.9738 1421.21 1.96384 1437.99 1.96384L1483.46 1.96384Z" fill="var(--fill-0, #69E5FF)"/>
</g>
<defs>
<filter id="filter0_d_2076_95" x="-1.90735e-06" y="-1" width="1900.22" height="91" filterUnits="userSpaceOnUse" color-interpolation-filters="sRGB">
<feFlood flood-opacity="0" result="BackgroundImageFix"/>
<feColorMatrix in="SourceAlpha" type="matrix" values="0 0 0 0 0 0 0 0 0 0 0 0 0 0 0 0 0 0 127 0" result="hardAlpha"/>
<feOffset dx="-10" dy="-1"/>
<feComposite in2="hardAlpha" operator="out"/>
<feColorMatrix type="matrix" values="0 0 0 0 1 0 0 0 0 0.498039 0 0 0 0 0.0980392 0 0 0 1 0"/>
<feBlend mode="normal" in2="BackgroundImageFix" result="effect1_dropShadow_2076_95"/>
<feBlend mode="normal" in="SourceGraphic" in2="effect1_dropShadow_2076_95" result="shape"/>
</filter>
</defs>
</svg>
