<?xml version="1.0" encoding="UTF-8"?>
<svg id="Layer_2" xmlns="http://www.w3.org/2000/svg" viewBox="0 0 74.57 76.92">
  <defs>
    <style>
      .cls-1 {
        fill: #11decd;
      }

      .cls-2 {
        fill: #e5fc2f;
      }
    </style>
  </defs>
  <g id="Layer_1-2" data-name="Layer_1">
    <g>
      <path class="cls-1" d="M15.38,0h43.8c8.5,0,15.38,6.82,15.38,15.23v46.46c0,8.41-6.89,15.23-15.38,15.23H15.38c-8.5,0-15.38-6.82-15.38-15.23V15.23C0,6.82,6.89,0,15.38,0"/>
      <path class="cls-2" d="M19.62,8.84c3.6-.67,6.17.61,8.77,2.18,1.6.98,3.04,2.19,4.33,3.54l31.41,32.7s.02.02.19.22c5.95,6.93,2.81,14.34-1.59,18.62-5.08,4.95-9.89,4.17-13.44,3.34-2.62-.61-4.38-1.84-6.98-3.84l-27.15-25.5c-2.2-2.07-4.11-4.42-5.55-7.06-2.1-3.84-3.81-9.15-1.54-14.36,2.91-6.68,7.04-9.01,11.55-9.84"/>
      <path class="cls-2" d="M40.56,15.07l16.76,16.39c.62.61,1.44.99,2.31,1.05,1.57.11,3.6-.72,4.99-3.48,0,0,5.14-9.12.67-16s-12.44-8.07-18.09-6.02c-4.55,1.65-5.63,3.11-6.82,4.56-.86,1.05-.79,2.56.18,3.51"/>
      <path class="cls-2" d="M12.67,47.23c3.96,3.15,11.67,9.58,17.89,16.55,1.46,1.64,1.01,4.18-.93,5.23-.06.03-.11.06-.17.09-12.44,5.86-19.76-5.06-20.54-6.39-.45-.77-.78-1.65-1.08-2.55-.99-2.97-.93-6.16-.06-9.16.54-1.86.47-1.72.93-2.7.68-1.48,2.62-2.14,3.96-1.07"/>
    </g>
  </g>
</svg>