<?xml version="1.0" encoding="UTF-8"?>
<svg id="Layer_2" xmlns="http://www.w3.org/2000/svg" viewBox="0 0 152.87 174.47">
  <defs>
    <style>
      .cls-1 {
        fill: #69e5ff;
      }

      .cls-2 {
        fill: #ff801a;
      }

      .cls-3 {
        fill: #e5fc2e;
      }

      .cls-4 {
        fill: #12decc;
      }
    </style>
  </defs>
  <g id="Layer_1-2" data-name="Layer_1">
    <g>
      <path class="cls-3" d="M51.35,0h47.71c9.25,0,16.76,7.43,16.76,16.59v50.6c0,9.16-7.5,16.59-16.76,16.59h-47.71c-9.25,0-16.76-7.43-16.76-16.59V16.59C34.59,7.43,42.1,0,51.35,0"/>
      <path class="cls-1" d="M55.96,9.63c3.92-.72,6.73.66,9.55,2.38,1.74,1.06,3.31,2.39,4.72,3.86l34.21,35.62s.02.02.2.23c6.48,7.54,3.06,15.62-1.73,20.28-5.54,5.39-10.77,4.54-14.64,3.63-2.85-.67-4.77-2-7.6-4.18l-29.57-27.78c-2.39-2.25-4.47-4.82-6.04-7.69-2.29-4.18-4.15-9.96-1.67-15.64,3.17-7.27,7.66-9.81,12.58-10.72"/>
      <path class="cls-4" d="M78.77,16.42l18.26,17.86c.68.66,1.57,1.08,2.52,1.14,1.71.12,3.93-.78,5.43-3.8,0,0,5.6-9.93.73-17.42-4.86-7.5-13.55-8.79-19.7-6.56-4.96,1.8-6.14,3.39-7.43,4.96-.94,1.14-.87,2.79.19,3.82"/>
      <path class="cls-4" d="M48.4,51.44c4.32,3.44,12.71,10.44,19.48,18.03,1.59,1.78,1.1,4.56-1.02,5.7-.06.03-.12.07-.19.1-13.55,6.38-21.53-5.51-22.37-6.96-.49-.84-.84-1.79-1.17-2.78-1.08-3.23-1.02-6.71-.07-9.98.59-2.03.52-1.87,1.01-2.95.74-1.62,2.85-2.33,4.32-1.16"/>
      <path class="cls-1" d="M14.66,107.91c0-1.06.2-2.04.59-2.94.4-.9.99-1.68,1.78-2.34.79-.66,1.78-1.17,2.97-1.54,1.19-.37,2.58-.55,4.16-.55.76,0,1.45.05,2.07.13.62.09,1.18.21,1.67.36.49.15.91.33,1.27.53.35.2.65.42.89.65.34.33.57.67.69.99.12.33.18.71.18,1.14,0,.77-.22,1.35-.65,1.74-.43.39-.98.58-1.64.58-.35,0-.67-.05-.96-.14-.29-.09-.6-.19-.94-.3-.34-.11-.72-.21-1.15-.3-.43-.09-.96-.14-1.59-.14-.43,0-.79.03-1.07.1-.28.07-.51.16-.69.27-.18.11-.31.25-.38.41-.07.16-.11.33-.11.51,0,.38.14.69.43.94.29.25.67.47,1.14.67.47.2,1.02.38,1.63.56.61.18,1.23.39,1.86.63.63.24,1.25.53,1.87.86.61.33,1.15.76,1.63,1.27.47.51.86,1.13,1.14,1.86.29.73.43,1.61.43,2.63,0,1.11-.21,2.14-.62,3.08-.41.94-1.03,1.75-1.85,2.43-.82.68-1.85,1.21-3.08,1.6-1.24.38-2.69.57-4.35.57-.8,0-1.54-.04-2.2-.13-.67-.09-1.26-.21-1.77-.36-.51-.15-.95-.32-1.31-.52-.36-.19-.64-.39-.85-.59-.35-.35-.6-.68-.74-1.01-.14-.33-.21-.73-.21-1.19,0-.79.22-1.39.65-1.79.43-.4.98-.6,1.63-.6.35,0,.67.05.97.14.29.09.62.2.97.32.36.12.77.22,1.25.32.47.09,1.07.14,1.78.14.49,0,.9-.04,1.24-.12.34-.08.61-.19.82-.33.21-.14.36-.3.45-.5.09-.19.14-.4.14-.63,0-.4-.14-.73-.43-1-.29-.27-.67-.5-1.14-.71-.48-.21-1.02-.4-1.63-.58-.61-.18-1.23-.39-1.86-.63-.63-.24-1.25-.53-1.86-.86-.61-.33-1.15-.75-1.63-1.25-.47-.5-.86-1.11-1.14-1.82-.29-.71-.43-1.57-.43-2.57"/>
      <path class="cls-1" d="M35.18,106.4c-.73,0-1.31-.23-1.74-.68-.42-.45-.64-1.15-.64-2.1s.21-1.64.63-2.1c.42-.45,1-.68,1.74-.68h15.08c.74,0,1.33.23,1.75.68.42.45.63,1.15.63,2.1s-.21,1.64-.64,2.1c-.42.45-1,.68-1.74.68h-3.95v14.49c0,.99-.29,1.76-.88,2.29-.59.54-1.5.81-2.73.81s-2.12-.27-2.7-.81c-.58-.54-.87-1.3-.87-2.29v-14.49h-3.95Z"/>
      <path class="cls-1" d="M54.67,103.83c0-.99.29-1.76.88-2.3.59-.54,1.49-.81,2.71-.81s2.14.27,2.72.81c.58.54.87,1.3.87,2.3v10.38c0,.8.08,1.49.24,2.05.16.57.38,1.04.67,1.4.29.37.63.64,1.02.81.39.17.82.26,1.29.26s.84-.07,1.2-.22c.36-.15.67-.38.93-.7.26-.32.46-.71.6-1.19.14-.48.21-1.05.21-1.72v-11.07c0-.99.29-1.76.87-2.3.58-.54,1.49-.81,2.72-.81s2.12.27,2.71.81c.59.54.88,1.3.88,2.3v10.54c0,1.6-.22,3.02-.66,4.25-.44,1.23-1.1,2.26-1.97,3.1-.87.83-1.95,1.47-3.25,1.89-1.3.43-2.81.64-4.52.64s-3.17-.2-4.44-.61c-1.27-.41-2.32-1-3.17-1.78-.85-.78-1.48-1.74-1.9-2.89-.42-1.15-.63-2.45-.63-3.92v-11.22Z"/>
      <path class="cls-1" d="M88.02,118.66c.81,0,1.54-.13,2.2-.38.65-.26,1.2-.65,1.66-1.17.46-.52.81-1.19,1.06-2,.25-.81.37-1.77.37-2.87s-.11-2.06-.33-2.84c-.22-.78-.55-1.41-.99-1.9-.44-.49-.99-.85-1.65-1.08-.66-.23-1.43-.34-2.31-.34h-1.73v12.59h1.73ZM79.1,103.97c0-.98.28-1.74.83-2.29.55-.55,1.33-.82,2.32-.82h6.05c2,0,3.77.26,5.3.78,1.54.52,2.83,1.25,3.87,2.21,1.05.96,1.84,2.11,2.37,3.47.54,1.36.81,2.87.81,4.54,0,1.86-.29,3.53-.86,5.01-.57,1.48-1.41,2.74-2.51,3.77-1.1,1.04-2.45,1.83-4.05,2.39-1.6.56-3.43.83-5.5.83h-5.49c-1,0-1.77-.27-2.32-.82-.55-.55-.83-1.31-.83-2.29v-16.8Z"/>
      <path class="cls-1" d="M103.84,103.83c0-.99.29-1.76.88-2.3.59-.54,1.49-.81,2.71-.81s2.14.27,2.72.81c.58.54.87,1.3.87,2.3v17.06c0,.99-.29,1.76-.88,2.3-.59.54-1.5.81-2.73.81s-2.12-.27-2.7-.81c-.58-.54-.87-1.3-.87-2.3v-17.06Z"/>
      <path class="cls-1" d="M121.57,112.35c0,1.1.12,2.06.37,2.87.25.81.58,1.49,1.01,2.02.42.53.92.93,1.48,1.19.56.26,1.17.39,1.81.39s1.23-.13,1.79-.38c.56-.26,1.05-.65,1.47-1.18.42-.53.75-1.2.99-2,.24-.81.36-1.76.36-2.85s-.12-2.06-.37-2.88c-.25-.82-.59-1.5-1.01-2.04-.42-.54-.92-.94-1.48-1.2-.57-.26-1.17-.39-1.81-.39s-1.23.13-1.79.38c-.56.26-1.05.65-1.47,1.19-.42.53-.75,1.2-.99,2.01-.24.81-.36,1.76-.36,2.86M114.21,112.71c0-1.9.28-3.61.85-5.12.57-1.51,1.38-2.8,2.44-3.85,1.06-1.05,2.34-1.86,3.85-2.42,1.5-.56,3.2-.84,5.08-.84s3.46.27,4.92.8c1.46.54,2.69,1.3,3.71,2.31,1.02,1,1.8,2.22,2.34,3.65.54,1.43.81,3.04.81,4.82,0,1.89-.28,3.59-.85,5.1-.57,1.51-1.38,2.79-2.44,3.84-1.06,1.05-2.35,1.86-3.86,2.42-1.51.56-3.2.84-5.08.84s-3.46-.27-4.91-.8c-1.46-.53-2.69-1.3-3.71-2.3-1.02-1-1.8-2.21-2.34-3.63-.54-1.43-.81-3.03-.81-4.81"/>
      <path class="cls-2" d="M8.82,174.22c-1.92,0-3.45-.46-4.62-1.39-1.16-.92-2.06-2.31-2.7-4.16-.59-1.73-.99-3.85-1.2-6.38-.21-2.52-.31-5.47-.31-8.84,0-3.11.15-5.9.45-8.36.29-2.46.81-4.55,1.54-6.28.82-1.89,2.12-3.32,3.9-4.29,1.78-.97,4.08-1.45,6.91-1.45,1.41,0,2.71.15,3.9.44,1.18.29,2.24.77,3.18,1.42.93.65,1.72,1.48,2.36,2.49.64,1.01,1.09,2.21,1.37,3.6.18.93.35,1.68.51,2.27.16.59.32,1.05.48,1.39.16.34.33.57.51.69.18.13.39.19.62.19.32,0,.57-.14.75-.41.18-.27.27-.6.27-.98v-2.59c0-2.95.55-5.1,1.64-6.47,1.09-1.37,2.48-2.05,4.17-2.05,1.6,0,2.95.34,4.07,1.01,1.12.67,1.97,2.06,2.56,4.17.46,1.56.79,3.57.99,6.03.21,2.46.31,5.52.31,9.18,0,3.45-.13,6.44-.38,8.96-.25,2.52-.72,4.65-1.4,6.38-.68,1.85-1.82,3.22-3.42,4.1-1.6.88-3.65,1.32-6.15,1.32-1.32,0-2.52-.16-3.59-.47-1.07-.32-2.03-.79-2.87-1.42-.84-.63-1.58-1.4-2.22-2.3-.64-.9-1.19-1.97-1.64-3.19-.46-1.22-.84-2.59-1.16-4.1-.14-.63-.25-1.2-.34-1.7-.09-.51-.2-.92-.31-1.23-.11-.32-.26-.56-.44-.72-.18-.17-.41-.25-.68-.25-.32,0-.58.14-.79.41-.2.27-.31.75-.31,1.42,0,.38.02.81.07,1.29.04.48.08.99.1,1.52.02.53.03,1.1.03,1.74,0,3.2-.52,5.5-1.57,6.91-1.05,1.41-2.58,2.11-4.58,2.11"/>
      <path class="cls-2" d="M61.5,159.38c1.11,0,2.08-.26,2.92-.79.83-.53,1.47-1.27,1.92-2.24.45-.97.67-2.08.67-3.35s-.24-2.35-.71-3.25c-.47-.9-1.13-1.59-1.98-2.05-.86-.46-1.8-.69-2.82-.69s-2,.23-2.79.69c-.79.46-1.42,1.15-1.89,2.05-.47.91-.7,2.01-.7,3.32s.22,2.37.67,3.31c.45.95,1.08,1.68,1.89,2.21.81.53,1.75.79,2.82.79M61.5,174.47c-3.63,0-6.94-.85-9.93-2.56-2.99-1.7-5.36-4.14-7.11-7.32-1.75-3.18-2.63-6.95-2.63-11.33s.88-8.08,2.63-11.11c1.75-3.03,4.11-5.34,7.08-6.94,2.97-1.6,6.29-2.4,9.96-2.4s7.02.79,10.03,2.37c3.01,1.58,5.41,3.88,7.21,6.91,1.79,3.03,2.69,6.73,2.69,11.11s-.9,8.15-2.69,11.33c-1.79,3.18-4.2,5.63-7.21,7.35-3.01,1.73-6.36,2.59-10.03,2.59"/>
      <path class="cls-2" d="M99.24,159.57c1.58,0,2.94-.22,4.07-.66,1.13-.44,2.01-1.15,2.63-2.11.62-.97.93-2.23.93-3.79s-.32-2.7-.96-3.57c-.64-.86-1.53-1.5-2.66-1.92-1.13-.42-2.45-.63-3.94-.63-.26,0-.48.03-.67.09-.19.06-.36.18-.51.35-.15.17-.26.47-.32.92-.06.44-.12,1.05-.16,1.83-.04.78-.07,1.78-.07,3,0,1.51.02,2.71.07,3.6.04.88.13,1.54.26,1.96.13.42.29.68.48.79.19.11.48.16.86.16M97.38,174.47c-2.61,0-4.69-.12-6.25-.35-1.56-.23-2.77-.61-3.62-1.14-.86-.53-1.52-1.25-1.99-2.18-.73-1.3-1.25-3.43-1.57-6.38-.32-2.94-.48-6.61-.48-10.98,0-2.74.07-5.22.23-7.45.15-2.23.38-4.14.7-5.75.32-1.6.69-2.82,1.12-3.66.47-.97,1.12-1.72,1.96-2.24.83-.53,2.04-.92,3.62-1.17,1.58-.25,3.67-.38,6.28-.38,7.43,0,13.2,1.73,17.3,5.18,4.1,3.45,6.13,8.56,6.09,15.34,0,4.67-.93,8.58-2.79,11.74-1.86,3.16-4.53,5.51-8.01,7.07-3.48,1.56-7.68,2.34-12.59,2.34"/>
      <path class="cls-2" d="M138.52,174.34c-3.08,0-5.53-.14-7.37-.41-1.84-.27-3.25-.69-4.23-1.26-.98-.57-1.73-1.31-2.24-2.24-.38-.84-.73-2.06-1.02-3.66-.3-1.6-.51-3.51-.64-5.74-.13-2.23-.19-4.75-.19-7.57s.08-5.26.23-7.45c.15-2.19.37-4.05.67-5.59.3-1.54.64-2.72,1.03-3.57.51-.97,1.26-1.74,2.24-2.3.98-.57,2.38-.98,4.2-1.23,1.82-.25,4.2-.38,7.15-.38,3.59,0,6.45.16,8.59.47,2.13.32,3.66.94,4.58,1.86.92.93,1.38,2.23,1.38,3.91s-.47,3.06-1.41,4.01c-.94.95-2.48,1.42-4.61,1.42-1.03,0-1.98-.01-2.85-.03-.88-.02-1.72-.05-2.53-.1-.81-.04-1.65-.06-2.5-.06-.6,0-1.04.11-1.31.32-.28.21-.42.63-.42,1.26,0,.29-.01.6-.03.92s-.03.62-.03.91c0,.42.13.73.38.92.26.19.68.28,1.28.28.98,0,1.85-.01,2.59-.03.75-.02,1.51-.04,2.27-.06.77-.02,1.58-.03,2.43-.03,2.01,0,3.42.36,4.23,1.07.81.71,1.22,1.81,1.22,3.28s-.4,2.57-1.19,3.28c-.79.72-2.06,1.07-3.81,1.07-1.15,0-2.4-.02-3.75-.06-1.35-.04-2.77-.06-4.26-.06-.94,0-1.41.38-1.41,1.14v1.96c0,.3.01.55.03.76.02.21.03.34.03.38,0,.42.13.74.39.95.26.21.6.32,1.03.32h9.8c1.28,0,2.33.38,3.14,1.14.81.76,1.22,1.94,1.22,3.54,0,1.01-.17,1.93-.51,2.75-.34.82-1.01,1.53-2.02,2.12-1,.59-2.46,1.04-4.36,1.36-1.9.32-4.37.47-7.4.47"/>
    </g>
  </g>
</svg>