<?xml version="1.0" encoding="UTF-8"?>
<svg id="Layer_2" xmlns="http://www.w3.org/2000/svg" viewBox="0 0 177.95 87.43">
  <defs>
    <style>
      .cls-1 {
        fill: #69e5ff;
      }

      .cls-2 {
        fill: #ff801a;
      }
    </style>
  </defs>
  <g id="Layer_1-2" data-name="Layer_1">
    <g>
      <path class="cls-1" d="M17.06,8.78c0-1.25.23-2.41.69-3.47.46-1.07,1.15-1.99,2.07-2.76.92-.78,2.07-1.38,3.46-1.81,1.39-.43,3-.65,4.84-.65.88,0,1.68.05,2.41.16.72.11,1.37.25,1.94.43.57.18,1.07.38,1.48.62s.76.49,1.04.77c.39.39.66.79.8,1.18.14.39.21.84.21,1.35,0,.91-.25,1.59-.75,2.05-.5.46-1.14.69-1.91.69-.41,0-.78-.05-1.11-.17s-.7-.23-1.1-.36c-.39-.12-.84-.24-1.34-.35-.5-.11-1.12-.17-1.86-.17-.5,0-.91.04-1.24.12-.33.08-.6.18-.81.31-.21.13-.36.29-.44.48-.09.19-.13.39-.13.6,0,.45.17.82.5,1.11.34.3.78.56,1.33.79.55.23,1.18.45,1.89.66.71.21,1.43.46,2.17.74.74.28,1.46.62,2.17,1.01.71.4,1.34.9,1.89,1.5.55.61,1,1.34,1.33,2.2.33.86.5,1.9.5,3.11,0,1.31-.24,2.53-.72,3.64-.48,1.11-1.2,2.07-2.15,2.87-.95.8-2.15,1.43-3.59,1.88-1.44.45-3.13.68-5.06.68-.93,0-1.79-.05-2.57-.16-.77-.1-1.46-.25-2.06-.42-.6-.18-1.11-.38-1.53-.61-.42-.23-.75-.46-.99-.7-.41-.41-.69-.81-.86-1.19-.17-.39-.25-.86-.25-1.41,0-.93.25-1.64.76-2.11.51-.47,1.14-.71,1.9-.71.41,0,.78.06,1.12.17.34.11.72.24,1.13.37.42.14.9.26,1.45.38.55.11,1.24.17,2.07.17.57,0,1.05-.05,1.44-.14.39-.09.71-.22.96-.38.24-.16.42-.36.52-.59.1-.23.16-.48.16-.74,0-.47-.17-.87-.5-1.18-.33-.32-.78-.6-1.33-.84-.55-.24-1.18-.47-1.89-.68-.71-.21-1.43-.46-2.17-.74-.74-.28-1.46-.62-2.17-1.01-.71-.4-1.34-.89-1.89-1.48-.55-.59-1-1.31-1.33-2.15-.34-.84-.5-1.85-.5-3.04"/>
      <path class="cls-1" d="M40.95,7c-.86,0-1.53-.27-2.02-.8-.49-.53-.74-1.36-.74-2.48s.24-1.94.73-2.48c.49-.53,1.16-.8,2.03-.8h17.56c.87,0,1.54.27,2.03.8s.73,1.36.73,2.48-.25,1.94-.74,2.48c-.49.53-1.17.8-2.02.8h-4.6v17.12c0,1.17-.34,2.07-1.02,2.71-.68.64-1.74.96-3.18.96s-2.47-.32-3.14-.96c-.68-.64-1.02-1.54-1.02-2.71V7h-4.6Z"/>
      <path class="cls-1" d="M63.64,3.97c0-1.17.34-2.07,1.03-2.71.68-.64,1.74-.96,3.16-.96s2.49.32,3.17.96c.68.64,1.02,1.54,1.02,2.71v12.27c0,.95.09,1.76.28,2.43.18.67.44,1.22.78,1.66.34.43.73.75,1.19.96s.96.31,1.5.31c.51,0,.98-.09,1.4-.27.42-.18.78-.45,1.08-.83.3-.38.54-.85.7-1.41.17-.57.25-1.24.25-2.03V3.97c0-1.17.34-2.07,1.02-2.71.68-.64,1.73-.96,3.17-.96s2.47.32,3.16.96c.68.64,1.02,1.54,1.02,2.71v12.45c0,1.89-.26,3.57-.77,5.02-.51,1.45-1.27,2.67-2.29,3.66-1.01.99-2.27,1.73-3.79,2.24-1.51.51-3.27.76-5.27.76s-3.7-.24-5.17-.72c-1.47-.48-2.7-1.18-3.69-2.1-.99-.92-1.72-2.06-2.21-3.41-.49-1.35-.73-2.9-.73-4.64V3.97Z"/>
      <path class="cls-1" d="M102.46,21.48c.95,0,1.8-.15,2.55-.45.76-.3,1.4-.76,1.93-1.38.53-.62.94-1.41,1.23-2.37.29-.96.43-2.09.43-3.39s-.13-2.43-.39-3.35c-.26-.92-.64-1.67-1.15-2.25-.51-.58-1.15-1-1.92-1.27-.77-.27-1.67-.4-2.69-.4h-2.01v14.87h2.01ZM92.08,4.12c0-1.16.32-2.06.97-2.7.64-.64,1.54-.97,2.7-.97h7.04c2.33,0,4.39.31,6.17.92,1.79.61,3.29,1.48,4.51,2.62,1.22,1.13,2.14,2.5,2.76,4.1.62,1.6.94,3.39.94,5.37,0,2.2-.33,4.17-1,5.92-.66,1.75-1.64,3.23-2.92,4.46-1.28,1.22-2.85,2.16-4.71,2.82-1.86.66-3.99.99-6.4.99h-6.39c-1.16,0-2.06-.32-2.7-.97-.64-.64-.97-1.54-.97-2.7V4.12Z"/>
      <path class="cls-1" d="M120.88,3.97c0-1.17.34-2.07,1.03-2.71.68-.64,1.73-.96,3.16-.96s2.49.32,3.17.96c.68.64,1.02,1.54,1.02,2.71v20.16c0,1.17-.34,2.07-1.03,2.71-.68.64-1.74.96-3.18.96s-2.47-.32-3.15-.96c-.68-.64-1.02-1.54-1.02-2.71V3.97Z"/>
      <path class="cls-1" d="M141.52,14.03c0,1.3.14,2.43.43,3.39.29.96.68,1.76,1.17,2.39.49.63,1.07,1.1,1.73,1.41.66.31,1.36.46,2.11.46s1.43-.15,2.08-.45c.65-.3,1.22-.77,1.71-1.39.49-.62.87-1.41,1.15-2.37.28-.95.42-2.07.42-3.36s-.14-2.44-.43-3.4c-.29-.97-.68-1.77-1.17-2.41-.49-.64-1.07-1.11-1.73-1.42-.66-.31-1.36-.46-2.11-.46s-1.43.15-2.08.45c-.65.3-1.22.77-1.71,1.4-.49.63-.87,1.42-1.16,2.38-.28.95-.42,2.08-.42,3.38M132.96,14.46c0-2.25.33-4.27.99-6.06.66-1.79,1.61-3.3,2.84-4.55,1.23-1.24,2.73-2.2,4.48-2.86s3.72-1,5.92-1,4.02.32,5.72.95c1.7.63,3.14,1.54,4.32,2.72,1.18,1.18,2.09,2.62,2.72,4.31.63,1.69.95,3.59.95,5.69,0,2.24-.33,4.24-.99,6.03-.66,1.78-1.6,3.29-2.84,4.54-1.24,1.24-2.73,2.2-4.49,2.86-1.76.66-3.73,1-5.91,1s-4.02-.32-5.72-.95c-1.7-.63-3.14-1.54-4.32-2.71-1.19-1.18-2.09-2.61-2.72-4.29-.63-1.68-.95-3.58-.95-5.68"/>
      <path class="cls-2" d="M10.27,87.13c-2.23,0-4.02-.55-5.38-1.64-1.35-1.09-2.4-2.73-3.14-4.92-.69-2.04-1.15-4.55-1.39-7.53-.24-2.98-.36-6.46-.36-10.44,0-3.68.17-6.97.52-9.88.34-2.91.94-5.38,1.79-7.42.96-2.24,2.47-3.93,4.54-5.07,2.07-1.14,4.75-1.72,8.04-1.72,1.64,0,3.16.18,4.54.52,1.38.35,2.61.91,3.7,1.68,1.09.77,2,1.75,2.75,2.94.74,1.19,1.27,2.61,1.59,4.25.21,1.09.41,1.99.6,2.68.19.7.37,1.25.56,1.64.19.4.39.67.6.82.21.15.45.23.72.23.37,0,.66-.16.88-.49.21-.32.32-.71.32-1.16v-3.06c0-3.48.64-6.03,1.91-7.64,1.27-1.62,2.89-2.42,4.86-2.42,1.86,0,3.44.4,4.74,1.19,1.3.8,2.29,2.44,2.98,4.92.53,1.84.92,4.21,1.15,7.12.24,2.91.36,6.53.36,10.85,0,4.08-.15,7.61-.44,10.59-.29,2.98-.84,5.49-1.63,7.53-.8,2.19-2.12,3.8-3.98,4.85-1.86,1.04-4.25,1.57-7.17,1.57-1.54,0-2.93-.18-4.18-.56-1.25-.37-2.36-.93-3.34-1.68-.98-.75-1.85-1.65-2.59-2.72-.74-1.07-1.38-2.32-1.91-3.77-.53-1.44-.98-3.06-1.35-4.85-.16-.75-.29-1.42-.4-2.01-.11-.6-.23-1.08-.36-1.46-.13-.37-.31-.66-.52-.86-.21-.2-.48-.3-.8-.3-.37,0-.68.16-.92.49-.24.32-.36.88-.36,1.68,0,.45.02.96.08,1.53.05.57.09,1.17.12,1.79.03.62.04,1.3.04,2.05,0,3.78-.61,6.5-1.83,8.17-1.22,1.67-3,2.5-5.33,2.5"/>
      <path class="cls-2" d="M71.6,69.61c1.29,0,2.42-.31,3.39-.93.97-.62,1.71-1.5,2.24-2.65.52-1.14.78-2.46.78-3.95s-.27-2.77-.82-3.84c-.55-1.07-1.32-1.88-2.31-2.42-1-.55-2.09-.82-3.28-.82s-2.32.27-3.24.82c-.92.55-1.65,1.36-2.2,2.42-.55,1.07-.82,2.38-.82,3.92s.26,2.8.78,3.92c.52,1.12,1.25,1.99,2.2,2.61.94.62,2.04.93,3.28.93M71.6,87.43c-4.23,0-8.08-1.01-11.56-3.02-3.48-2.01-6.24-4.9-8.28-8.65-2.04-3.75-3.06-8.22-3.06-13.39s1.02-9.55,3.06-13.13c2.04-3.58,4.79-6.31,8.24-8.2,3.45-1.89,7.32-2.83,11.6-2.83s8.17.93,11.67,2.8c3.51,1.87,6.3,4.59,8.39,8.17,2.09,3.58,3.13,7.96,3.13,13.13s-1.04,9.63-3.13,13.39c-2.09,3.76-4.89,6.65-8.39,8.69-3.51,2.04-7.4,3.06-11.67,3.06"/>
      <path class="cls-2" d="M115.53,69.83c1.84,0,3.42-.26,4.74-.78,1.32-.52,2.34-1.35,3.06-2.5.72-1.14,1.08-2.64,1.08-4.48s-.37-3.19-1.12-4.21c-.75-1.02-1.78-1.78-3.1-2.28-1.32-.5-2.85-.75-4.58-.75-.3,0-.56.04-.78.11-.22.07-.42.21-.6.41-.17.2-.3.56-.37,1.08-.07.52-.14,1.24-.18,2.16-.05.92-.08,2.1-.08,3.54,0,1.79.02,3.21.08,4.25.05,1.04.15,1.82.3,2.31.15.5.34.81.56.93.22.12.56.19,1.01.19M113.36,87.43c-3.03,0-5.46-.14-7.27-.41-1.82-.27-3.22-.72-4.21-1.34-.99-.62-1.77-1.48-2.31-2.57-.85-1.54-1.45-4.05-1.83-7.53-.37-3.48-.56-7.81-.56-12.98,0-3.23.09-6.16.26-8.8.17-2.63.45-4.9.82-6.79.37-1.89.81-3.33,1.3-4.33.55-1.14,1.31-2.03,2.28-2.65.97-.62,2.37-1.08,4.21-1.38,1.84-.3,4.28-.45,7.31-.45,8.65,0,15.36,2.04,20.14,6.12,4.77,4.08,7.13,10.12,7.08,18.12,0,5.52-1.08,10.14-3.24,13.87-2.16,3.73-5.27,6.51-9.32,8.35-4.05,1.84-8.94,2.76-14.66,2.76"/>
      <path class="cls-2" d="M161.25,87.28c-3.58,0-6.44-.16-8.58-.49-2.14-.32-3.78-.82-4.92-1.49-1.14-.67-2.01-1.55-2.61-2.65-.45-.99-.85-2.44-1.19-4.33-.35-1.89-.6-4.15-.75-6.79-.15-2.64-.22-5.62-.22-8.95s.09-6.21.26-8.8c.17-2.59.43-4.79.78-6.6.35-1.82.75-3.22,1.19-4.21.6-1.14,1.47-2.05,2.61-2.72,1.14-.67,2.77-1.16,4.88-1.46,2.11-.3,4.89-.45,8.32-.45,4.18,0,7.51.19,9.99.56,2.49.37,4.26,1.11,5.33,2.2,1.07,1.09,1.6,2.63,1.6,4.62s-.55,3.62-1.64,4.74c-1.09,1.12-2.88,1.68-5.37,1.68-1.19,0-2.3-.01-3.32-.04-1.02-.02-2-.06-2.95-.11-.95-.05-1.92-.08-2.91-.08-.7,0-1.21.12-1.53.37-.32.25-.49.75-.49,1.49,0,.35-.01.71-.04,1.08-.02.37-.04.74-.04,1.08,0,.5.15.86.45,1.08.3.22.79.34,1.49.34,1.14,0,2.15-.01,3.02-.04.87-.02,1.75-.05,2.65-.07.9-.03,1.84-.04,2.84-.04,2.34,0,3.98.42,4.92,1.27.95.85,1.42,2.14,1.42,3.88s-.46,3.03-1.38,3.88c-.92.85-2.4,1.27-4.44,1.27-1.34,0-2.8-.02-4.36-.07-1.57-.05-3.22-.07-4.96-.07-1.1,0-1.64.45-1.64,1.34v2.31c0,.35.01.65.04.89.02.25.04.4.04.45,0,.5.15.87.45,1.12.3.25.7.37,1.19.37h11.41c1.49,0,2.71.45,3.65,1.34.94.9,1.42,2.29,1.42,4.18,0,1.19-.2,2.28-.6,3.24-.4.97-1.18,1.8-2.35,2.5-1.17.7-2.86,1.23-5.07,1.6-2.21.37-5.08.56-8.61.56"/>
    </g>
  </g>
</svg>